<?xml version="1.0" standalone="no"?>
<!DOCTYPE svg PUBLIC "-//W3C//DTD SVG 20010904//EN"
 "http://www.w3.org/TR/2001/REC-SVG-20010904/DTD/svg10.dtd">
<svg version="1.0" xmlns="http://www.w3.org/2000/svg"
 width="64.000000pt" height="64.000000pt" viewBox="0 0 64.000000 64.000000"
 preserveAspectRatio="xMidYMid meet">
<metadata>
Created by potrace 1.11, written by Peter Selinger 2001-2013
</metadata>
<g transform="translate(0.000000,64.000000) scale(0.100000,-0.100000)"
fill="#000000" stroke="none">
<path d="M192 619 c-120 -46 -200 -172 -188 -297 19 -220 243 -340 444 -239
l43 21 34 -39 c19 -22 34 -43 35 -47 0 -13 40 -19 60 -8 19 10 29 59 13 60 -5
1 -27 18 -51 38 l-42 38 32 64 c27 54 32 76 31 130 -1 116 -64 216 -173 271
-61 32 -165 35 -238 8z m226 -65 c116 -56 163 -192 107 -311 -13 -29 -29 -53
-35 -53 -13 0 -14 -3 15 54 44 87 28 183 -41 253 -177 177 -468 -22 -366 -249
49 -109 188 -159 301 -108 45 21 72 18 36 -3 -91 -54 -204 -47 -290 19 -49 37
-86 118 -86 187 0 86 55 177 128 213 81 38 147 38 231 -2z m-28 -54 c61 -31
95 -90 94 -160 -1 -36 -8 -67 -19 -84 -24 -36 -29 -27 -8 15 35 69 13 155 -52
205 -92 70 -234 23 -267 -89 -14 -48 2 -120 35 -156 52 -56 153 -73 212 -35
14 9 25 12 25 7 0 -19 -55 -38 -110 -38 -46 1 -66 6 -100 28 -116 77 -101 256
25 313 45 20 120 17 165 -6z m-67 -27 c-7 -2 -21 -2 -30 0 -10 3 -4 5 12 5 17
0 24 -2 18 -5z m-69 -13 c-12 -5 -25 -13 -29 -19 -3 -6 -11 -11 -17 -11 -5 0
0 9 13 20 13 10 31 19 39 19 9 0 6 -4 -6 -9z m130 -11 c14 -11 31 -30 37 -42
7 -15 2 -11 -17 10 -16 17 -38 36 -49 42 -11 6 -15 11 -9 11 6 0 23 -9 38 -21z
m-198 -65 c-6 -19 -12 -28 -14 -20 -3 13 14 56 22 56 2 0 -2 -16 -8 -36z m142
-38 c3 -11 0 -16 -7 -12 -6 4 -11 0 -11 -8 0 -9 -4 -16 -9 -16 -16 0 -31 27
-25 44 9 23 48 17 52 -8z m97 -63 c-9 -15 -13 -19 -9 -8 4 11 10 38 13 60 5
39 6 39 9 8 2 -18 -4 -45 -13 -60z m-245 27 c0 -27 42 -72 81 -87 33 -13 33
-13 4 -7 -38 7 -82 50 -94 92 -6 20 -6 30 0 27 5 -4 9 -15 9 -25z m186 -85
c-11 -8 -31 -15 -45 -14 -23 1 -22 2 7 9 18 4 36 10 39 14 4 3 9 6 12 6 3 0
-3 -7 -13 -15z"/>
</g>
</svg>
